<svg width="102" height="33" viewBox="0 0 102 33" fill="none" xmlns="http://www.w3.org/2000/svg">
<path d="M22.5133 10.2597V21.4966C22.5133 22.4252 21.7605 23.178 20.8319 23.178H20.7963C19.8677 23.178 19.1149 22.4252 19.1149 21.4966V10.2597C19.1149 9.33108 19.8677 8.57831 20.7963 8.57831H20.8319C21.7605 8.57831 22.5133 9.33108 22.5133 10.2597ZM20.2066 0.43129C21.9546 0.0254135 23.3333 1.4041 22.9273 3.15245C22.7557 3.8919 22.1609 4.48647 21.4214 4.65799C19.6731 5.06315 18.2953 3.68446 18.7008 1.93711C18.8724 1.19751 19.4671 0.602945 20.2066 0.43129Z" fill="#3E8FCA"/>
<path d="M55.1819 3.37679H49.2866C48.3672 3.37679 47.622 4.12197 47.622 5.04139V7.57285C47.622 8.49227 48.3672 9.23745 49.2866 9.23745H54.9045C55.8237 9.23745 56.5691 9.98277 56.5691 10.902C56.5691 11.8213 55.8237 12.5666 54.9045 12.5666H49.2866C48.3672 12.5666 47.622 13.3118 47.622 14.2311V18.1843C47.622 19.1036 48.3672 19.8489 49.2866 19.8489H55.1819C56.1012 19.8489 56.8465 20.5941 56.8465 21.5134C56.8465 22.4328 56.1012 23.178 55.1819 23.178H45.7496C44.8303 23.178 44.085 22.4328 44.085 21.5134V1.7122C44.085 0.792929 44.8303 0.0477467 45.7496 0.0477467H55.1819C56.1012 0.0477467 56.8465 0.792929 56.8465 1.7122C56.8465 2.63161 56.1012 3.37679 55.1819 3.37679Z" fill="#3E8FCA"/>
<path d="M84.9148 11.7139C84.3607 12.0781 83.6469 12.0343 83.1171 11.6359C82.7663 11.3723 82.3152 11.1795 81.7482 11.1795C81.2628 11.1795 80.9159 11.3528 80.7081 11.5607C80.5345 11.7341 80.3957 12.0117 80.3957 12.3238C80.3957 12.705 80.5694 12.9478 80.8814 13.156C81.0895 13.2947 81.2976 13.3642 82.0258 13.7454L83.7596 14.6126C84.5227 14.9938 85.2508 15.3754 85.8057 15.9648C86.6033 16.7627 86.8808 17.6642 86.8808 18.6698C86.8808 19.9876 86.3953 21.1321 85.5977 21.999C84.4532 23.2474 83.0314 23.6289 81.5057 23.6289C80.5694 23.6289 79.3901 23.4902 78.35 22.6925C77.9767 22.4124 77.6311 22.0557 77.3323 21.6535C76.7533 20.8741 77.0336 19.758 77.9108 19.3414C78.5913 19.0181 79.3876 19.2477 79.8365 19.8528C79.9063 19.9467 79.9776 20.0283 80.049 20.0917C80.257 20.2999 80.7426 20.6465 81.5402 20.6465C82.0602 20.6465 82.6153 20.4729 82.9276 20.161C83.2047 19.8835 83.4127 19.4327 83.4127 19.0167C83.4127 18.6005 83.274 18.2536 82.962 17.907C82.5458 17.4908 82.0602 17.248 81.5057 17.0053L80.257 16.4158C79.5983 16.1035 78.8007 15.7223 78.2458 15.1674C77.4832 14.4391 77.2056 13.6416 77.2056 12.705C77.2056 11.5261 77.6564 10.3819 78.4193 9.58415C79.0782 8.89065 80.1877 8.19716 81.9909 8.19716C83.0314 8.19716 83.8638 8.40503 84.6959 8.95995C84.8101 9.03339 84.9338 9.12029 85.0633 9.22237C85.8789 9.86605 85.8003 11.1316 84.9321 11.7024L84.9148 11.7139Z" fill="#3E8FCA"/>
<path d="M92.6261 20.1138L88.0176 11.0246C87.5595 9.85418 88.5709 8.57842 89.8169 8.57842C90.5367 8.57842 91.0484 8.94565 91.3306 9.52432L93.5292 14.0315C94.1422 15.2881 95.9308 15.2939 96.552 14.0414L98.794 9.52075C99.0802 8.94364 99.6689 8.57842 100.313 8.57842C101.574 8.57842 102.388 9.91345 101.81 11.0344L91.929 30.2066C91.6403 30.7672 91.0625 31.1194 90.432 31.1194C89.1649 31.1194 88.3516 29.7732 88.9409 28.6515L92.6149 21.659C92.8686 21.1761 92.8728 20.6002 92.6261 20.1138Z" fill="#3E8FCA"/>
<path d="M8.9876 20.1804C5.73686 20.5932 2.99094 17.8473 3.40383 14.5968C3.68529 12.3809 5.4743 10.5914 7.69008 10.3095C10.9411 9.89565 13.688 12.6423 13.2747 15.8937C12.993 18.1097 11.2035 19.899 8.9876 20.1804ZM15.0149 10.268C15.7025 10.268 16.2599 9.71068 16.2599 9.02305V8.58726C16.2599 7.65839 15.507 6.90548 14.5781 6.90548H8.55567C4.30377 6.90548 0.347943 10.3552 0.0248166 14.5948C-0.370609 19.7837 4.01472 24.0816 9.23041 23.5377C13.0227 23.1423 16.1167 20.1223 16.6073 16.3411C16.904 14.0545 16.2554 11.9278 15.0149 10.268Z" fill="#3E8FCA"/>
<path d="M8.3396 32.7786C4.47096 32.7786 1.20906 30.1307 0.27132 26.5523C-0.00842655 25.485 0.795309 24.4393 1.89869 24.4393C2.67565 24.4393 3.3305 24.9773 3.53179 25.7278C4.10087 27.8495 6.04063 29.416 8.3396 29.416C10.6381 29.416 12.5779 27.8495 13.147 25.7278C13.3483 24.9773 14.0031 24.4393 14.7801 24.4393C15.8835 24.4393 16.6872 25.485 16.4076 26.5523C15.4697 30.1307 12.208 32.7786 8.3396 32.7786Z" fill="#3E8FCA"/>
<path d="M33.4049 20.2217C30.6606 20.2217 28.428 17.9891 28.428 15.2449C28.428 12.5006 30.6606 10.268 33.4049 10.268C36.1493 10.268 38.3818 12.5006 38.3818 15.2449C38.3818 17.9891 36.1493 20.2217 33.4049 20.2217ZM40.0806 10.268C40.7681 10.268 41.3253 9.71082 41.3253 9.02334V8.58983C41.3253 7.65953 40.5713 6.90548 39.641 6.90548H33.6349C29.0495 6.90548 25.1488 10.5083 25.0668 15.0929C24.978 20.0559 29.2488 24.0648 34.2973 23.5375C38.0893 23.1415 41.183 20.1217 41.6732 16.3406C41.9697 14.0542 41.3212 11.9276 40.0806 10.268Z" fill="#3E8FCA"/>
<path d="M33.405 32.7786C29.5364 32.7786 26.2745 30.1307 25.3368 26.5523C25.057 25.485 25.8607 24.4393 26.9641 24.4393C27.7411 24.4393 28.3959 24.9774 28.5972 25.7278C29.1663 27.8495 31.1061 29.416 33.405 29.416C35.704 29.416 37.6438 27.8495 38.2128 25.7278C38.4141 24.9774 39.069 24.4393 39.8459 24.4393C40.9493 24.4393 41.7531 25.485 41.4733 26.5523C40.5356 30.1307 37.2737 32.7786 33.405 32.7786Z" fill="#3E8FCA"/>
<path d="M67.1492 20.1801C63.8973 20.5946 61.1495 17.8469 61.5638 14.5949C61.846 12.3791 63.6354 10.5903 65.8514 10.3092C69.1015 9.89678 71.8467 12.6421 71.4346 15.8923C71.1535 18.1081 69.3648 19.8977 67.1492 20.1801ZM67.652 6.98334C62.2413 6.25377 57.6445 10.7529 58.2063 16.1367C58.6021 19.9289 61.6219 23.0227 65.403 23.513C67.6895 23.8095 69.8161 23.161 71.4758 21.9205C71.4758 22.7435 72.1428 23.4105 72.9659 23.4105H73.2197C74.1136 23.4105 74.8383 22.686 74.8383 21.792C74.8383 20.1671 74.8383 17.597 74.8383 15.4055C74.8383 11.2135 71.8064 7.5437 67.652 6.98334Z" fill="#3E8FCA"/>
</svg>
